<svg xmlns="http://www.w3.org/2000/svg" width="83" height="83" viewBox="0 0 83 83"><g><g><path fill="#f5c506" d="M-.008 54.996L13.072 41.5-.008 28.004h11.095L24.17 41.5 11.087 54.996zm16.84 0L29.911 41.5l-13.08-13.496h11.095L41.007 41.5l-13.08 13.496zm55.08 0L58.833 41.5l13.08-13.496h11.096L69.928 41.5l13.08 13.496zm-16.839 0L41.993 41.5l13.08-13.496H66.17L53.089 41.5l13.08 13.496zM28.004-.008L41.5 13.072 54.996-.008v11.095L41.499 24.168l-13.495-13.08zm0 16.84L41.5 29.911l13.497-13.08v11.095l-13.497 13.08-13.495-13.08zm0 55.08L41.5 58.833l13.497 13.08v11.096l-13.497-13.08-13.495 13.08zm0-16.839L41.5 41.992l13.497 13.081v11.095l-13.497-13.08-13.495 13.08z"/></g></g></svg>